<?xml version="1.0" standalone="no"?>
<!DOCTYPE svg PUBLIC "-//W3C//DTD SVG 20010904//EN"
 "http://www.w3.org/TR/2001/REC-SVG-20010904/DTD/svg10.dtd">
<svg version="1.0" xmlns="http://www.w3.org/2000/svg"
 width="260.000000pt" height="260.000000pt" viewBox="0 0 260.000000 260.000000"
 preserveAspectRatio="xMidYMid meet">
<metadata>
Created by potrace 1.11, written by Peter Selinger 2001-2013
</metadata>
<g transform="translate(0.000000,260.000000) scale(0.100000,-0.100000)"
fill="#000000" stroke="none">
<path d="M1960 1923 c-21 -6 -64 -27 -70 -33 -3 -3 -21 -17 -40 -30 -55 -39
-80 -62 -74 -72 3 -4 -5 -8 -18 -8 -13 0 -30 -9 -38 -20 -8 -11 -20 -20 -27
-20 -7 0 -13 -4 -13 -10 0 -5 -6 -10 -13 -10 -7 0 -19 -9 -27 -20 -8 -11 -21
-20 -30 -20 -9 0 -22 -9 -30 -20 -8 -11 -19 -20 -25 -20 -6 0 -17 -9 -25 -20
-8 -11 -18 -20 -22 -20 -7 0 -36 -21 -63 -47 -8 -7 -18 -13 -24 -13 -6 0 -11
-4 -11 -10 0 -5 -7 -10 -15 -10 -8 0 -15 -3 -14 -7 0 -9 67 -59 117 -88 17
-11 32 -23 32 -27 0 -4 7 -8 15 -8 8 0 15 -4 15 -10 0 -5 6 -10 13 -10 7 0 19
-9 27 -20 8 -11 20 -20 27 -20 7 0 13 -4 13 -9 0 -16 40 -20 54 -5 8 8 20 14
26 14 15 0 60 46 53 54 -4 3 1 6 11 6 14 0 89 42 106 60 18 18 119 90 126 90
5 0 16 9 24 20 8 11 20 20 27 20 7 0 13 5 13 10 0 6 5 10 10 10 6 0 24 14 42
30 17 17 37 30 44 30 8 0 14 4 14 8 0 4 12 15 28 24 15 9 37 25 49 35 55 46
64 53 73 53 6 0 10 5 10 10 0 6 7 10 15 10 8 0 15 5 15 10 0 6 6 10 13 10 7 0
19 9 27 20 8 11 20 20 27 20 7 0 13 5 13 10 0 6 7 10 16 10 8 0 12 5 9 10 -3
6 0 10 8 10 8 0 19 6 25 13 9 10 -43 13 -266 13 -152 1 -284 -1 -292 -3z"/>
<path d="M88 1908 c12 -6 22 -15 22 -20 0 -4 7 -8 15 -8 8 0 20 -9 27 -20 7
-11 19 -20 27 -20 7 0 24 -10 36 -22 27 -29 63 -58 71 -58 3 0 11 -6 19 -12
29 -28 56 -48 64 -48 5 0 25 -15 44 -34 19 -18 49 -42 66 -52 17 -10 31 -22
31 -26 0 -4 6 -8 13 -8 8 0 22 -9 32 -20 10 -11 21 -18 24 -15 4 2 25 -12 47
-32 21 -19 55 -46 76 -59 20 -13 39 -28 43 -34 3 -5 15 -10 26 -10 11 0 18 -4
15 -9 -4 -5 7 -15 24 -23 16 -7 30 -16 30 -20 0 -5 5 -8 11 -8 7 0 19 -8 28
-18 9 -9 27 -23 41 -30 49 -25 62 -41 63 -73 2 -27 -3 -36 -28 -48 -16 -9 -43
-28 -60 -43 -16 -16 -33 -28 -37 -28 -7 0 -28 -15 -62 -45 -6 -5 -23 -16 -38
-24 -16 -8 -28 -18 -28 -23 0 -4 -6 -8 -13 -8 -7 0 -19 -9 -27 -20 -8 -11 -20
-20 -27 -20 -7 0 -13 -4 -13 -10 0 -5 -7 -10 -16 -10 -8 0 -13 -4 -10 -9 4 -5
-7 -15 -24 -23 -16 -7 -30 -16 -30 -20 0 -5 -7 -8 -15 -8 -8 0 -15 -4 -15 -10
0 -5 -7 -10 -15 -10 -8 0 -15 -3 -15 -7 -1 -5 -24 -24 -51 -43 -28 -19 -64
-45 -79 -57 -15 -13 -33 -23 -39 -23 -6 0 -11 -4 -11 -8 0 -5 -12 -15 -27 -23
-16 -8 -37 -23 -48 -35 -11 -12 -35 -29 -52 -40 -18 -10 -33 -22 -33 -26 0 -4
-7 -8 -15 -8 -8 0 -15 -4 -15 -10 0 -5 -7 -10 -15 -10 -8 0 -15 -4 -15 -8 0
-5 -10 -14 -23 -20 -16 -8 50 -11 261 -11 182 -1 282 3 282 9 0 6 7 10 15 10
8 0 15 5 15 10 0 6 5 10 11 10 6 0 16 6 24 13 30 28 56 47 65 47 6 0 10 5 10
10 0 6 6 10 13 10 7 0 19 9 27 20 8 11 20 20 27 20 7 0 13 5 13 10 0 6 7 10
15 10 8 0 15 5 15 10 0 6 5 10 11 10 6 0 16 6 23 13 7 6 24 20 37 29 13 10 51
38 84 63 33 24 66 45 73 45 6 0 12 3 12 8 0 4 23 23 50 42 27 19 50 38 50 43
0 4 7 7 15 7 8 0 29 14 47 30 17 17 36 30 42 30 6 0 18 9 26 20 8 11 18 20 22
20 7 0 36 21 63 48 8 6 17 12 22 12 5 0 15 9 23 20 8 11 20 20 27 20 7 0 13 5
13 10 0 6 7 10 15 10 8 0 15 9 15 20 0 11 -7 20 -15 20 -8 0 -15 5 -15 10 0 6
-4 10 -10 10 -5 0 -18 7 -27 15 -10 8 -49 37 -88 65 -38 28 -77 56 -85 63 -8
7 -27 18 -40 25 -14 7 -42 29 -62 47 -20 19 -43 35 -50 35 -8 0 -20 9 -28 20
-8 11 -20 20 -27 20 -7 0 -13 5 -13 10 0 6 -7 10 -15 10 -14 0 -40 20 -100 78
-13 12 -29 22 -35 22 -5 0 -10 4 -10 8 0 5 -12 15 -27 23 -16 8 -35 22 -44 31
-9 10 -21 18 -28 18 -6 0 -11 5 -11 10 0 6 -6 10 -14 10 -7 0 -31 17 -53 38
-21 20 -51 43 -66 51 -14 8 -36 22 -46 33 -19 17 -41 18 -298 17 -207 0 -272
-3 -255 -11z"/>
<path d="M1635 1130 c-10 -11 -23 -20 -29 -20 -7 0 -18 -9 -26 -20 -8 -11 -20
-20 -27 -20 -7 0 -13 -4 -13 -10 0 -5 -7 -10 -15 -10 -8 0 -15 -4 -15 -10 0
-5 -6 -10 -13 -10 -7 0 -19 -9 -27 -20 -8 -11 -19 -20 -25 -20 -6 0 -17 -9
-25 -20 -8 -11 -21 -20 -29 -20 -17 0 4 -22 59 -60 19 -13 37 -27 40 -30 3 -3
21 -17 40 -30 19 -13 41 -30 48 -37 7 -6 30 -22 52 -34 22 -13 40 -26 40 -31
0 -4 8 -8 18 -8 10 0 24 -9 32 -20 8 -11 23 -20 33 -20 10 0 16 -4 13 -8 -3
-5 6 -15 19 -22 14 -7 25 -17 25 -22 0 -4 6 -8 13 -8 7 0 19 -9 27 -20 8 -11
23 -20 33 -20 10 0 15 -4 12 -10 -3 -5 3 -10 15 -10 12 0 18 -4 15 -10 -3 -5
1 -10 9 -10 9 0 16 -3 16 -7 0 -5 132 -8 294 -8 265 0 293 2 278 15 -18 17
-70 54 -167 122 -33 23 -62 44 -65 48 -3 3 -21 17 -40 30 -19 13 -41 30 -48
37 -13 12 -28 17 -45 14 -5 -1 -6 3 -2 9 3 5 0 10 -7 10 -8 0 -20 9 -28 20 -8
11 -20 20 -27 20 -7 0 -13 5 -13 10 0 6 -6 10 -13 10 -7 0 -19 9 -27 20 -8 11
-21 20 -28 20 -8 0 -27 14 -42 30 -15 17 -33 30 -39 30 -6 0 -11 5 -11 10 0 6
-7 10 -15 10 -8 0 -15 5 -15 10 0 6 -6 10 -13 10 -7 0 -19 9 -27 20 -8 11 -20
20 -27 20 -7 0 -13 5 -13 10 0 6 -4 10 -10 10 -9 0 -35 19 -65 48 -8 6 -18 12
-24 12 -6 0 -11 5 -11 10 0 18 -46 11 -65 -10z"/>
</g>
</svg>
